# xmcd
#
# Track frame offsets:
#	150
#	16622
#	34717
#	48889
#	61829
#	82862
#	95555
#	111314
#	127805
#	144134
#	155529
#	171825
#	185552
#	197278
#
# Disc length: 2819 seconds
#
# Revision: 1
# Processed by: cddbd v1.5.2PL0 Copyright (c) Steve Scherf et al.
# Submitted via: audiograbber 1.83.01
#
DISCID=a10b010e
DTITLE=Billy Flynn - Billy's Blues
DYEAR=2005
DGENRE=Blues
TTITLE0=I Feel It
TTITLE1=Oh Yeah, Someday
TTITLE2=Blues Everyday
TTITLE3=Doin' Alright
TTITLE4=Blue Chromatic
TTITLE5=Come On Now!
TTITLE6=Blues Today
TTITLE7=Blues Crawled in My Bed
TTITLE8=Juanita
TTITLE9=All thw Luv is Gone
TTITLE10=Billy's Blues Pt. 1
TTITLE11=Liquor Store Blues
TTITLE12=Trompin'
TTITLE13=Hamhocks
EXTD=
EXTT0=
EXTT1=
EXTT2=
EXTT3=
EXTT4=
EXTT5=
EXTT6=
EXTT7=
EXTT8=
EXTT9=
EXTT10=
EXTT11=
EXTT12=
EXTT13=
PLAYORDER=
